<?xml version="1.0" encoding="UTF-8" standalone="no"?>
<svg
   xmlns:dc="http://purl.org/dc/elements/1.1/"
   xmlns:cc="http://creativecommons.org/ns#"
   xmlns:rdf="http://www.w3.org/1999/02/22-rdf-syntax-ns#"
   xmlns:svg="http://www.w3.org/2000/svg"
   xmlns="http://www.w3.org/2000/svg"
   xmlns:sodipodi="http://sodipodi.sourceforge.net/DTD/sodipodi-0.dtd"
   xmlns:inkscape="http://www.inkscape.org/namespaces/inkscape"
   viewBox="0 0 216.00 216.00"
   id="svg2"
   version="1.1"
   inkscape:version="0.91 r13725"
   sodipodi:docname="fig1_degreesdef.svg">
  <metadata
     id="metadata112">
    <rdf:RDF>
      <cc:Work
         rdf:about="">
        <dc:format>image/svg+xml</dc:format>
        <dc:type
           rdf:resource="http://purl.org/dc/dcmitype/StillImage" />
      </cc:Work>
    </rdf:RDF>
  </metadata>
  <sodipodi:namedview
     pagecolor="#ffffff"
     bordercolor="#666666"
     borderopacity="1"
     objecttolerance="10"
     gridtolerance="10"
     guidetolerance="10"
     inkscape:pageopacity="0"
     inkscape:pageshadow="2"
     inkscape:window-width="1278"
     inkscape:window-height="707"
     id="namedview110"
     showgrid="false"
     showguides="true"
     inkscape:guide-bbox="true"
     inkscape:zoom="1.5451593"
     inkscape:cx="114.47182"
     inkscape:cy="112.33564"
     inkscape:window-x="0"
     inkscape:window-y="0"
     inkscape:window-maximized="0"
     inkscape:current-layer="svg2" />
  <defs
     id="defs4">
    <style
       type="text/css"
       id="style6"><![CDATA[
    line, polyline, path, rect, circle {
      fill: none;
      stroke: #000000;
      stroke-linecap: round;
      stroke-linejoin: round;
      stroke-miterlimit: 10.00;
    }
  ]]></style>
  </defs>
  <defs
     id="defs10">
    <clipPath
       id="cp1">
      <rect
         x="0.00"
         y="53.91"
         width="216.00"
         height="108.18"
         id="rect13" />
    </clipPath>
  </defs>
  <defs
     id="defs17">
    <clipPath
       id="cp2">
      <rect
         x="0.00"
         y="0.00"
         width="216.00"
         height="216.00"
         id="rect20" />
    </clipPath>
  </defs>
  <defs
     id="defs22">
    <clipPath
       id="cp3">
      <rect
         x="24.73"
         y="57.90"
         width="187.28"
         height="90.51"
         id="rect25" />
    </clipPath>
  </defs>
  <polyline
     points="33.25,62.01 34.56,62.01 35.87,62.01 37.18,62.01 38.49,62.01 39.80,62.01 41.11,62.01 42.42,62.01 43.72,62.01 45.03,62.01 46.34,62.01 47.65,62.01 48.96,62.01 50.27,62.01 51.58,62.01 52.89,62.01 54.20,62.01 55.51,62.01 56.82,62.01 58.13,62.01 59.44,62.01 60.75,62.01 62.06,62.01 63.37,62.01 64.68,62.01 65.99,62.01 67.30,62.01 68.61,62.01 69.92,62.01 71.23,62.01 72.54,62.01 73.85,62.01 75.16,62.01 76.47,62.01 77.78,62.01 79.09,62.01 80.40,62.01 81.70,62.01 83.01,62.01 84.32,62.01 85.63,62.01 86.94,62.01 88.25,62.01 89.56,62.01 90.87,62.01 92.18,62.01 93.49,62.01 94.80,62.01 96.11,62.01 97.42,62.01 98.73,62.01 100.04,62.01 101.35,62.01 102.66,62.01 103.97,62.01 105.28,62.01 106.59,62.01 107.90,62.01 109.21,62.01 110.52,62.01 111.83,62.01 113.14,62.01 114.45,62.01 115.76,62.01 117.07,62.01 118.37,62.01 119.68,62.01 120.99,62.01 122.30,62.01 123.61,62.01 124.92,62.01 126.23,62.01 127.54,62.01 128.85,62.01 130.16,62.01 131.47,62.01 132.78,62.01 134.09,62.01 135.40,62.01 136.71,62.01 138.02,62.01 139.33,62.01 140.64,62.01 141.95,62.01 143.26,62.01 144.57,62.01 145.88,62.01 147.19,62.01 148.50,62.01 149.81,62.01 151.12,62.01 152.43,62.01 153.74,62.01 155.05,62.01 156.35,62.01 157.66,62.01 158.97,62.01 160.28,62.01 161.59,62.01 162.90,62.01 164.21,62.01 165.52,62.01 166.83,62.01 168.14,62.01 169.45,62.01 170.76,62.01 172.07,62.01 173.38,62.01 174.69,62.01 176.00,62.01 177.31,62.01 178.62,62.01 179.93,62.01 181.24,62.01 182.55,62.01 183.86,62.01 185.17,62.01 186.48,62.01 187.79,62.01 189.10,62.01 190.41,62.01 191.72,62.01 193.03,62.01 194.33,62.01 195.64,62.01 196.95,62.01 198.26,62.01 199.57,62.01 200.88,62.01 202.19,62.01 203.50,62.01 "
     style="fill:none;stroke:#000000;stroke-width:1.07000005;stroke-linecap:butt;stroke-linejoin:round;stroke-miterlimit:10"
     clip-path="url(#cp3)"
     id="polyline55"
     transform="translate(-24.592934,-0.97077372)"
     inkscape:export-xdpi="300"
     inkscape:export-ydpi="300" />
  <polyline
     points="33.25,80.56 34.56,78.52 35.87,77.09 37.18,76.00 38.49,75.12 39.80,74.39 41.11,73.77 42.42,73.23 43.72,72.76 45.03,72.34 46.34,71.96 47.65,71.62 48.96,71.31 50.27,71.02 51.58,70.76 52.89,70.53 54.20,70.30 55.51,70.10 56.82,69.91 58.13,69.73 59.44,69.57 60.75,69.41 62.06,69.27 63.37,69.13 64.68,69.00 65.99,68.88 67.30,68.77 68.61,68.67 69.92,68.57 71.23,68.47 72.54,68.38 73.85,68.30 75.16,68.22 76.47,68.15 77.78,68.08 79.09,68.01 80.40,67.95 81.70,67.90 83.01,67.84 84.32,67.79 85.63,67.74 86.94,67.70 88.25,67.65 89.56,67.61 90.87,67.58 92.18,67.54 93.49,67.51 94.80,67.48 96.11,67.45 97.42,67.43 98.73,67.40 100.04,67.38 101.35,67.36 102.66,67.35 103.97,67.33 105.28,67.31 106.59,67.30 107.90,67.29 109.21,67.28 110.52,67.27 111.83,67.27 113.14,67.26 114.45,67.26 115.76,67.25 117.07,67.25 118.37,67.25 119.68,67.25 120.99,67.25 122.30,67.26 123.61,67.26 124.92,67.27 126.23,67.27 127.54,67.28 128.85,67.29 130.16,67.30 131.47,67.31 132.78,67.33 134.09,67.35 135.40,67.36 136.71,67.38 138.02,67.40 139.33,67.43 140.64,67.45 141.95,67.48 143.26,67.51 144.57,67.54 145.88,67.58 147.19,67.61 148.50,67.65 149.81,67.70 151.12,67.74 152.43,67.79 153.74,67.84 155.05,67.90 156.35,67.95 157.66,68.01 158.97,68.08 160.28,68.15 161.59,68.22 162.90,68.30 164.21,68.38 165.52,68.47 166.83,68.57 168.14,68.67 169.45,68.77 170.76,68.88 172.07,69.00 173.38,69.13 174.69,69.27 176.00,69.41 177.31,69.57 178.62,69.73 179.93,69.91 181.24,70.10 182.55,70.30 183.86,70.53 185.17,70.76 186.48,71.02 187.79,71.31 189.10,71.62 190.41,71.96 191.72,72.34 193.03,72.76 194.33,73.23 195.64,73.77 196.95,74.39 198.26,75.12 199.57,76.00 200.88,77.09 202.19,78.52 203.50,80.56 "
     style="fill:none;stroke:#000000;stroke-width:1.07000005;stroke-linecap:butt;stroke-linejoin:round;stroke-miterlimit:10"
     clip-path="url(#cp3)"
     id="polyline57"
     transform="translate(-24.592934,-0.97077372)"
     inkscape:export-xdpi="300"
     inkscape:export-ydpi="300" />
  <polyline
     points="33.25,99.12 34.56,95.02 35.87,92.17 37.18,89.98 38.49,88.23 39.80,86.77 41.11,85.53 42.42,84.45 43.72,83.50 45.03,82.66 46.34,81.91 47.65,81.22 48.96,80.60 50.27,80.04 51.58,79.52 52.89,79.04 54.20,78.60 55.51,78.19 56.82,77.81 58.13,77.45 59.44,77.12 60.75,76.81 62.06,76.52 63.37,76.25 64.68,75.99 65.99,75.76 67.30,75.53 68.61,75.32 69.92,75.12 71.23,74.93 72.54,74.76 73.85,74.59 75.16,74.44 76.47,74.29 77.78,74.15 79.09,74.02 80.40,73.90 81.70,73.78 83.01,73.67 84.32,73.57 85.63,73.47 86.94,73.38 88.25,73.30 89.56,73.22 90.87,73.14 92.18,73.08 93.49,73.01 94.80,72.95 96.11,72.90 97.42,72.85 98.73,72.80 100.04,72.76 101.35,72.72 102.66,72.68 103.97,72.65 105.28,72.62 106.59,72.59 107.90,72.57 109.21,72.55 110.52,72.53 111.83,72.52 113.14,72.51 114.45,72.50 115.76,72.49 117.07,72.49 118.37,72.49 119.68,72.49 120.99,72.49 122.30,72.50 123.61,72.51 124.92,72.52 126.23,72.53 127.54,72.55 128.85,72.57 130.16,72.59 131.47,72.62 132.78,72.65 134.09,72.68 135.40,72.72 136.71,72.76 138.02,72.80 139.33,72.85 140.64,72.90 141.95,72.95 143.26,73.01 144.57,73.08 145.88,73.14 147.19,73.22 148.50,73.30 149.81,73.38 151.12,73.47 152.43,73.57 153.74,73.67 155.05,73.78 156.35,73.90 157.66,74.02 158.97,74.15 160.28,74.29 161.59,74.44 162.90,74.59 164.21,74.76 165.52,74.93 166.83,75.12 168.14,75.32 169.45,75.53 170.76,75.76 172.07,75.99 173.38,76.25 174.69,76.52 176.00,76.81 177.31,77.12 178.62,77.45 179.93,77.81 181.24,78.19 182.55,78.60 183.86,79.04 185.17,79.52 186.48,80.04 187.79,80.60 189.10,81.22 190.41,81.91 191.72,82.66 193.03,83.50 194.33,84.45 195.64,85.53 196.95,86.77 198.26,88.23 199.57,89.98 200.88,92.17 202.19,95.02 203.50,99.12 "
     style="fill:none;stroke:#000000;stroke-width:1.07000005;stroke-linecap:butt;stroke-linejoin:round;stroke-miterlimit:10"
     clip-path="url(#cp3)"
     id="polyline59"
     transform="translate(-24.592934,-0.97077372)"
     inkscape:export-xdpi="300"
     inkscape:export-ydpi="300" />
  <polyline
     points="33.25,144.29 34.56,134.06 35.87,126.92 37.18,121.47 38.49,117.08 39.80,113.43 41.11,110.33 42.42,107.63 43.72,105.27 45.03,103.16 46.34,101.27 47.65,99.57 48.96,98.02 50.27,96.60 51.58,95.30 52.89,94.10 54.20,93.00 55.51,91.97 56.82,91.02 58.13,90.13 59.44,89.30 60.75,88.53 62.06,87.81 63.37,87.13 64.68,86.49 65.99,85.90 67.30,85.33 68.61,84.81 69.92,84.31 71.23,83.84 72.54,83.40 73.85,82.98 75.16,82.59 76.47,82.23 77.78,81.88 79.09,81.55 80.40,81.24 81.70,80.95 83.01,80.68 84.32,80.43 85.63,80.19 86.94,79.96 88.25,79.75 89.56,79.55 90.87,79.37 92.18,79.19 93.49,79.03 94.80,78.89 96.11,78.75 97.42,78.62 98.73,78.50 100.04,78.39 101.35,78.29 102.66,78.21 103.97,78.12 105.28,78.05 106.59,77.99 107.90,77.93 109.21,77.88 110.52,77.84 111.83,77.80 113.14,77.78 114.45,77.75 115.76,77.74 117.07,77.73 118.37,77.73 119.68,77.73 120.99,77.74 122.30,77.75 123.61,77.78 124.92,77.80 126.23,77.84 127.54,77.88 128.85,77.93 130.16,77.99 131.47,78.05 132.78,78.12 134.09,78.21 135.40,78.29 136.71,78.39 138.02,78.50 139.33,78.62 140.64,78.75 141.95,78.89 143.26,79.03 144.57,79.19 145.88,79.37 147.19,79.55 148.50,79.75 149.81,79.96 151.12,80.19 152.43,80.43 153.74,80.68 155.05,80.95 156.35,81.24 157.66,81.55 158.97,81.88 160.28,82.23 161.59,82.59 162.90,82.98 164.21,83.40 165.52,83.84 166.83,84.31 168.14,84.81 169.45,85.33 170.76,85.90 172.07,86.49 173.38,87.13 174.69,87.81 176.00,88.53 177.31,89.30 178.62,90.13 179.93,91.02 181.24,91.97 182.55,93.00 183.86,94.10 185.17,95.30 186.48,96.60 187.79,98.02 189.10,99.57 190.41,101.27 191.72,103.16 193.03,105.27 194.33,107.63 195.64,110.33 196.95,113.43 198.26,117.08 199.57,121.47 200.88,126.92 202.19,134.06 203.50,144.29 "
     style="fill:none;stroke:#000000;stroke-width:1.07000005;stroke-linecap:butt;stroke-linejoin:round;stroke-miterlimit:10"
     clip-path="url(#cp3)"
     id="polyline61"
     transform="translate(-24.592934,-0.97077372)"
     inkscape:export-xdpi="300"
     inkscape:export-ydpi="300" />
  <defs
     id="defs65">
    <clipPath
       id="cp4">
      <rect
         x="0.00"
         y="0.00"
         width="216.00"
         height="216.00"
         id="rect68" />
    </clipPath>
  </defs>
  <text
     xml:space="preserve"
     style="font-style:normal;font-variant:normal;font-weight:normal;font-stretch:normal;font-size:10px;line-height:125%;font-family:Arial;-inkscape-font-specification:Arial;letter-spacing:0px;word-spacing:0px;fill:#000000;fill-opacity:1;stroke:none;stroke-width:1px;stroke-linecap:butt;stroke-linejoin:miter;stroke-opacity:1"
     x="181.53468"
     y="63.912113"
     id="text3454"
     sodipodi:linespacing="125%"
     inkscape:export-xdpi="300"
     inkscape:export-ydpi="300"><tspan
       sodipodi:role="line"
       id="tspan3456"
       x="181.53468"
       y="63.912113">b=0</tspan></text>
  <text
     sodipodi:linespacing="125%"
     id="text3470"
     y="79.444496"
     x="181.53468"
     style="font-style:normal;font-variant:normal;font-weight:normal;font-stretch:normal;font-size:10px;line-height:125%;font-family:Arial;-inkscape-font-specification:Arial;letter-spacing:0px;word-spacing:0px;fill:#000000;fill-opacity:1;stroke:none;stroke-width:1px;stroke-linecap:butt;stroke-linejoin:miter;stroke-opacity:1"
     xml:space="preserve"
     inkscape:export-xdpi="300"
     inkscape:export-ydpi="300"><tspan
       y="79.444496"
       x="181.53468"
       id="tspan3472"
       sodipodi:role="line">b=0.2</tspan></text>
  <text
     xml:space="preserve"
     style="font-style:normal;font-variant:normal;font-weight:normal;font-stretch:normal;font-size:10px;line-height:125%;font-family:Arial;-inkscape-font-specification:Arial;letter-spacing:0px;word-spacing:0px;fill:#000000;fill-opacity:1;stroke:none;stroke-width:1px;stroke-linecap:butt;stroke-linejoin:miter;stroke-opacity:1"
     x="181.53468"
     y="97.565605"
     id="text3474"
     sodipodi:linespacing="125%"
     inkscape:export-xdpi="300"
     inkscape:export-ydpi="300"><tspan
       sodipodi:role="line"
       id="tspan3476"
       x="181.53468"
       y="97.565605">b=0.4</tspan></text>
  <text
     sodipodi:linespacing="125%"
     id="text3478"
     y="134.455"
     x="181.53468"
     style="font-style:normal;font-variant:normal;font-weight:normal;font-stretch:normal;font-size:10px;line-height:125%;font-family:Arial;-inkscape-font-specification:Arial;letter-spacing:0px;word-spacing:0px;fill:#000000;fill-opacity:1;stroke:none;stroke-width:1px;stroke-linecap:butt;stroke-linejoin:miter;stroke-opacity:1"
     xml:space="preserve"
     inkscape:export-xdpi="300"
     inkscape:export-ydpi="300"><tspan
       y="134.455"
       x="181.53468"
       id="tspan3480"
       sodipodi:role="line">b=1</tspan></text>
</svg>
